<svg width="34" height="35" viewBox="0 0 34 35" fill="none" xmlns="http://www.w3.org/2000/svg">
<path id="Vector" d="M24.7389 27.8502C23.138 27.7225 21.6843 27.03 20.5658 25.8794C20.4712 25.782 20.379 25.6806 20.2882 25.5766C20.4033 27.3407 19.8671 29.0455 18.7525 30.42L17.4383 32.0419L17.071 35L16.6794 32.0261L15.3614 30.4463C14.2276 29.0864 13.6709 27.3855 13.7707 25.6108C13.1066 26.3889 12.2773 27.0063 11.347 27.4065H11.3444C10.7059 27.6817 10.0315 27.8502 9.34171 27.9094L7.33261 28.0793L5.02533 29.9157L6.79002 27.5316L6.94486 25.4555C7.07923 23.6717 7.85344 22.0656 9.1408 20.886C7.41962 21.0005 5.76371 20.4423 4.43539 19.2891L2.89081 17.9489L0 17.5685L2.88697 17.1656L4.42132 15.811C5.7394 14.6459 7.39275 14.0758 9.12289 14.1798C9.01795 14.0837 8.9143 13.985 8.81576 13.8836C8.20151 13.2517 7.71395 12.5079 7.38123 11.6917C7.11506 11.0374 6.9487 10.341 6.88855 9.62612L6.71452 7.54081L4.93703 5.17509L7.23663 6.97604L9.28797 7.15376C11.0207 7.30253 12.5768 8.10558 13.7182 9.42733C13.6031 7.65008 14.1444 5.9426 15.2679 4.57214L16.5822 2.96867L16.952 0L17.3423 2.97788L18.6553 4.56556C19.7827 5.92812 20.3355 7.62901 20.2331 9.39968C20.8973 8.61901 21.7291 8.00158 22.6569 7.60005C23.2903 7.32754 23.9634 7.15903 24.657 7.09847L26.6879 6.92075L28.9798 5.09874L27.2151 7.48289L27.0603 9.5524C27.018 10.1198 26.9105 10.6675 26.7429 11.1901C26.7122 11.2849 26.6802 11.3797 26.6456 11.4718C26.6277 11.5192 26.6098 11.5653 26.5919 11.6114C26.5689 11.6693 26.5458 11.7272 26.5215 11.7838C26.4729 11.8971 26.4217 12.0103 26.3667 12.1209C26.3385 12.1761 26.3104 12.2314 26.2822 12.2854C25.9213 12.9687 25.4453 13.5887 24.8643 14.1206C26.5855 14.0047 28.2414 14.5629 29.5697 15.7175L31.1117 17.0563L34 17.4368L31.1233 17.8383L29.5838 19.1983C28.2644 20.362 26.6098 20.9321 24.881 20.8267C25.6462 21.5205 26.2464 22.3736 26.6316 23.3202C26.8965 23.9718 27.0628 24.6656 27.123 25.3805L27.2957 27.4473L29.0886 29.8289L26.7736 28.0174L24.7389 27.8554V27.8502Z" fill="#FEAF00"/>
</svg>
